<svg xmlns="http://www.w3.org/2000/svg" xmlns:xlink="http://www.w3.org/1999/xlink" viewBox="0 0 1921 1082"><defs><style>.cls-1{opacity:0.49;}.cls-2{fill:#c82568;}.cls-3{fill:#999;opacity:0.35;}.cls-4{fill:none;stroke:#b52466;stroke-linejoin:round;stroke-width:4.19px;}.cls-5{opacity:0.44;}.cls-6{opacity:0.1;}.cls-7{opacity:0.2;}.cls-8{opacity:0.6;}.cls-9{opacity:0.85;fill:url(#linear-gradient);}.cls-10{fill:#fff;}</style><linearGradient id="linear-gradient" x1="209.5" y1="1291.5" x2="1710.5" y2="-209.5" gradientUnits="userSpaceOnUse"><stop offset="0" stop-color="#ff4d63"/><stop offset="0.09" stop-color="#dd4258"/><stop offset="0.18" stop-color="#c3394f"/><stop offset="0.23" stop-color="#ba364c"/><stop offset="0.23" stop-color="#ba364c"/><stop offset="0.39" stop-color="#ad324c"/><stop offset="0.47" stop-color="#aa2e4e"/><stop offset="0.73" stop-color="#a32451"/><stop offset="0.9" stop-color="#a12550"/><stop offset="0.97" stop-color="#9a274e"/><stop offset="1" stop-color="#93294c"/></linearGradient></defs><title>bgfarid</title><g id="Layer_2" data-name="Layer 2"><g id="planet"><g id="planet-2" data-name="planet" class="cls-1"><ellipse id="planet-3" data-name="planet" class="cls-2" cx="134.22" cy="512.68" rx="20.23" ry="20.93" transform="translate(-67.82 22.74) rotate(-7.74)"/><ellipse class="cls-3" cx="134.6" cy="499.95" rx="4.19" ry="1.4" transform="translate(-66.1 22.68) rotate(-7.74)"/><ellipse class="cls-3" cx="151.69" cy="511.71" rx="1.4" ry="2.79" transform="translate(-67.53 25.09) rotate(-7.74)"/><ellipse class="cls-3" cx="122.66" cy="515.66" rx="1.4" ry="2.79" transform="translate(-68.32 21.22) rotate(-7.74)"/><ellipse class="cls-3" cx="147.66" cy="523.52" rx="2.79" ry="1.4" transform="translate(-69.16 24.65) rotate(-7.74)"/><ellipse class="cls-3" cx="145.03" cy="504.17" rx="1.4" ry="2.79" transform="translate(-66.57 24.12) rotate(-7.74)"/><ellipse class="cls-3" cx="129.32" cy="507.71" rx="2.09" ry="1.4" transform="translate(-67.19 22.04) rotate(-7.74)"/><circle class="cls-3" cx="136.42" cy="523.64" r="1.4" transform="translate(-69.27 23.14) rotate(-7.74)"/><ellipse class="cls-3" cx="134" cy="516.23" rx="1.4" ry="2.09" transform="translate(-68.3 22.75) rotate(-7.74)"/><path class="cls-4" d="M114,519c-10.1,5.67-15.93,9.5-15.46,10.55,1.7,3.77,84-28.3,83.08-31-.29-.85-9,1.09-28.65,6.71"/></g><g class="cls-5"><path d="M627,294.35l.68-.22a30.65,30.65,0,0,1-20.81,21.7c-16,5-32.88-3.36-37.65-18.67-4-12.88,1.81-26.59,13.31-33.58A31.72,31.72,0,0,0,584,273C589.42,290.51,608.69,300.06,627,294.35Z"/></g></g><g id="art_layer"><path id="bottom_river" class="cls-6" d="M1,1080V932c4.31-3.61,11.45-8.41,20-8,21.08,1,27.75,32.62,47,33,14.33.28,17.19-17.1,32-17,17.91.12,21.31,25.59,42,30,19.55,4.17,25.14-16.73,49-18,31.41-1.67,37.19,33.74,77,38,22.56,2.41,28.45-8.12,53-2,21.43,5.35,24.31,15.22,38,14,23.35-2.08,26-31.79,47-34,20.69-2.18,27.56,25.68,58,30,17.56,2.49,19.4-6.19,40-8,48.1-4.24,63.12,40.86,108,36,21.8-2.36,26.93-13.94,52-12,18.76,1.45,23.06,8.49,40,8,24.3-.7,26.89-15.51,48-19,36-6,49.68,33.58,86,28,22.28-3.42,26.69-19.77,49-18,18.22,1.45,19.24,12.66,37,15,26.3,3.46,33.47-19.9,64-22,25.63-1.77,28.16,14.17,58,15,31.9.89,34.39-17.18,62-17,42.37.27,60.11,43,88,34,14.92-4.79,11.25-17.46,32-29,24-13.36,36.42-.52,60-11,30.51-13.55,26.93-42.65,50-48,22.88-5.31,30.09,22.46,65,31,44.5,10.89,60.17-27.54,117-22,34.93,3.4,38.82,18.87,69,15,32.7-4.2,35.55-23.31,65-24,33.12-.77,46.24,23,69,14,16.91-6.7,15-22,31-26,21.3-5.38,31.35,20,55,18,24.55-2.12,28.75-30.79,56-38,20.2-5.34,40.52,4.43,55,14l1,147Z"/><g id="right_shooting" class="cls-7"><ellipse class="cls-2" cx="304.49" cy="567.44" rx="2.5" ry="232.39" transform="translate(-249.27 238.73) rotate(-31.09)"/><ellipse class="cls-2" cx="475.47" cy="556.06" rx="1.74" ry="111.66" transform="translate(-218.83 325.38) rotate(-31.09)"/><ellipse class="cls-2" cx="109.02" cy="475.46" rx="1.7" ry="78.32" transform="translate(-229.85 124.58) rotate(-31.09)"/></g><g id="left_shooting" class="cls-8"><ellipse class="cls-2" cx="704.94" cy="293.84" rx="2.5" ry="232.39" transform="matrix(0.84, -0.54, 0.54, 0.84, -46.4, 430.87)"/><ellipse class="cls-2" cx="875.45" cy="276.87" rx="1.74" ry="111.66" transform="translate(-9.71 520.92) rotate(-32.96)"/><ellipse class="cls-2" cx="506.57" cy="208.31" rx="1.7" ry="78.32" transform="translate(-31.79 309.16) rotate(-32.96)"/></g><g id="left_shooting-2" data-name="left_shooting" class="cls-8"><ellipse class="cls-2" cx="1524.4" cy="273.25" rx="2.5" ry="232.39" transform="translate(53.5 757.95) rotate(-28.4)"/><ellipse class="cls-2" cx="1695.73" cy="269.9" rx="1.74" ry="111.66" transform="translate(75.72 839.03) rotate(-28.4)"/><ellipse class="cls-2" cx="1333.46" cy="172.21" rx="1.7" ry="78.32" transform="translate(78.58 654.97) rotate(-28.4)"/></g><g id="right_shooting-2" data-name="right_shooting" class="cls-7"><ellipse class="cls-2" cx="1363.55" cy="590.06" rx="2.5" ry="232.39" transform="translate(-116.81 716.47) rotate(-28.28)"/><ellipse class="cls-2" cx="1534.88" cy="587.06" rx="1.74" ry="111.66" transform="translate(-94.94 797.29) rotate(-28.28)"/><ellipse class="cls-2" cx="1172.82" cy="488.62" rx="1.7" ry="78.32" transform="translate(-91.51 614) rotate(-28.28)"/></g></g><g id="mask_layer"><rect class="cls-9" width="1920" height="1082"/></g><g id="sky"><circle class="cls-10" cx="112.92" cy="209.6" r="1.75"/><circle class="cls-10" cx="241.37" cy="328.95" r="2.1"/><circle class="cls-10" cx="98.57" cy="353.45" r="2.8"/><circle class="cls-10" cx="385.22" cy="358" r="1.05"/><ellipse class="cls-10" cx="286.87" cy="404.2" ry="1.05"/><circle class="cls-10" cx="369.47" cy="279.25" r="2.8"/><circle class="cls-10" cx="158.77" cy="335.25" r="2.1"/><polygon class="cls-10" points="90.52 269.99 91.49 271.96 93.66 272.28 92.09 273.81 92.46 275.97 90.52 274.95 88.58 275.97 88.95 273.81 87.38 272.28 89.55 271.96 90.52 269.99"/><polygon class="cls-10" points="235.42 265.67 237.66 270.21 242.67 270.94 239.05 274.48 239.9 279.47 235.42 277.11 230.94 279.47 231.79 274.48 228.16 270.94 233.18 270.21 235.42 265.67"/><polygon class="cls-10" points="608.87 296.39 609.8 298.27 611.87 298.57 610.37 300.03 610.72 302.1 608.87 301.12 607.02 302.1 607.37 300.03 605.87 298.57 607.94 298.27 608.87 296.39"/><polygon class="cls-10" points="222.82 532.5 223.79 534.46 225.96 534.78 224.39 536.31 224.76 538.47 222.82 537.45 220.88 538.47 221.25 536.31 219.68 534.78 221.85 534.46 222.82 532.5"/><polygon class="cls-10" points="472.37 315.87 473.75 318.65 476.82 319.1 474.6 321.27 475.12 324.33 472.37 322.89 469.62 324.33 470.14 321.27 467.92 319.1 470.99 318.65 472.37 315.87"/><polygon class="cls-10" points="282.67 345.27 284.32 348.29 287.35 349.95 284.32 351.6 282.67 354.63 281.01 351.6 277.99 349.95 281.01 348.29 282.67 345.27"/><polygon class="cls-10" points="91.57 454.84 93.09 457.63 95.88 459.15 93.09 460.67 91.57 463.45 90.05 460.67 87.26 459.15 90.05 457.63 91.57 454.84"/><circle class="cls-10" cx="1598" cy="295" r="3"/><circle class="cls-10" cx="1771" cy="335" r="3"/><circle class="cls-10" cx="1526.5" cy="443.5" r="4.5"/><ellipse class="cls-10" cx="1823" cy="621" ry="4"/><circle class="cls-10" cx="1708" cy="458" r="3.6"/><ellipse class="cls-10" cx="96.5" cy="641" rx="1.5"/><circle class="cls-10" cx="1485.5" cy="348.5" r="4.5"/></g></g></svg>